<svg width="17" height="18" viewBox="0 0 17 18" fill="none" xmlns="http://www.w3.org/2000/svg">
<path d="M0.833313 7.49956C0.833255 7.25712 0.886091 7.01758 0.988136 6.79766C1.09018 6.57774 1.23898 6.38272 1.42415 6.22623L7.25748 1.22706C7.5583 0.972819 7.93944 0.833328 8.33331 0.833328C8.72718 0.833328 9.10832 0.972819 9.40915 1.22706L15.2425 6.22623C15.4276 6.38272 15.5764 6.57774 15.6785 6.79766C15.7805 7.01758 15.8334 7.25712 15.8333 7.49956V14.9996C15.8333 15.4416 15.6577 15.8655 15.3452 16.1781C15.0326 16.4906 14.6087 16.6662 14.1666 16.6662H2.49998C2.05795 16.6662 1.63403 16.4906 1.32147 16.1781C1.00891 15.8655 0.833313 15.4416 0.833313 14.9996V7.49956Z" stroke="#155DFC" stroke-width="1.66667" stroke-linecap="round" stroke-linejoin="round"/>
</svg>
