<svg width="19" height="17" viewBox="0 0 19 17" fill="none" xmlns="http://www.w3.org/2000/svg">
<path d="M1.66665 13.3333C1.44563 13.3333 1.23367 13.2455 1.07739 13.0893C0.92111 12.933 0.833313 12.721 0.833313 12.5V1.66668C0.833313 1.44566 0.92111 1.2337 1.07739 1.07742C1.23367 0.921141 1.44563 0.833344 1.66665 0.833344H5.83331C6.71737 0.833344 7.56521 1.18453 8.19034 1.80965C8.81546 2.43478 9.16665 3.28262 9.16665 4.16668C9.16665 3.28262 9.51784 2.43478 10.143 1.80965C10.7681 1.18453 11.6159 0.833344 12.5 0.833344H16.6666C16.8877 0.833344 17.0996 0.921141 17.2559 1.07742C17.4122 1.2337 17.5 1.44566 17.5 1.66668V12.5C17.5 12.721 17.4122 12.933 17.2559 13.0893C17.0996 13.2455 16.8877 13.3333 16.6666 13.3333H11.6666C11.0036 13.3333 10.3677 13.5967 9.89888 14.0656C9.43004 14.5344 9.16665 15.1703 9.16665 15.8333C9.16665 15.1703 8.90325 14.5344 8.43441 14.0656C7.96557 13.5967 7.32969 13.3333 6.66665 13.3333H1.66665Z" stroke="#364153" stroke-width="1.66667" stroke-linecap="round" stroke-linejoin="round"/>
</svg>
